<svg xmlns="http://www.w3.org/2000/svg" width="400" height="220" viewBox="0,0,400,220"><rect width="100%" height="100%" fill="#f9f9f9"/><path fill="#e48ace" d="M55.96 112.78L55.85 112.67L55.85 112.67Q52.30 112.55 51.20 115.90L51.31 116.00L51.24 115.93Q51.02 117.16 50.90 118.23L50.75 118.08L50.73 118.05Q50.56 120.13 51.55 121.46L51.61 121.52L51.49 121.40Q52.93 122.69 55.41 122.73L55.34 122.66L55.42 122.74Q57.23 122.77 58.64 121.62L58.67 121.65L58.58 121.57Q60.04 120.48 60.04 118.69L60.12 118.76L60.00 118.64Q59.98 118.28 59.90 117.90L59.99 117.98L60.01 118.00Q59.76 112.84 55.95 112.77ZM55.89 125.27L55.81 125.19L55.88 125.26Q52.08 125.49 50.29 123.48L50.30 123.48L50.14 123.33Q50.07 124.51 49.61 125.88L49.61 125.88L49.52 125.79Q47.53 126.51 46.28 127.08L46.35 127.15L46.29 127.09Q48.42 121.08 48.42 114.57L48.54 114.69L48.46 114.60Q48.53 106.37 45.10 98.53L45.02 98.45L45.02 98.45Q47.44 99.87 48.77 100.33L48.71 100.27L48.73 100.30Q50.75 106.85 50.91 112.67L51.02 112.78L51.02 112.79Q52.49 110.14 56.22 110.18L56.15 110.11L56.25 110.21Q59.36 110.12 60.84 111.99L60.85 112.00L60.88 112.02Q62.72 114.32 62.87 117.90L62.84 117.87L62.76 117.78Q63.03 119.16 62.95 120.76L62.76 120.57L62.85 120.66Q62.74 122.03 61.86 123.17L62.00 123.31L61.97 123.28Q60.23 125.01 55.89 125.27ZM61.32 127.73L61.21 127.62L61.39 127.80Q62.83 127.75 64.31 127.07L64.39 127.15L64.36 127.12Q65.45 125.81 65.49 123.87L65.40 123.78L65.40 123.78Q65.48 123.36 65.33 122.18L65.33 122.18L65.29 122.15Q65.11 121.36 65.00 120.45L65.18 120.63L65.10 120.55Q64.17 115.65 62.61 113.60L62.71 113.70L62.62 113.62Q62.77 113.72 61.97 112.85L61.95 112.83L62.00 112.87Q61.72 112.56 61.18 111.76L61.09 111.66L61.16 111.73Q59.61 109.84 56.26 109.88L56.24 109.86L56.19 109.80Q54.17 109.88 52.91 110.49L52.94 110.52L52.95 110.53Q52.64 106.03 52.03 102.83L52.01 102.82L51.91 102.71Q51.13 102.50 49.65 102.12L49.82 102.29L49.78 102.26Q49.60 101.47 49.14 100.02L49.11 99.99L49.05 99.93Q46.60 99.11 44.35 97.55L44.47 97.67L44.35 97.55Q48.25 105.87 48.25 114.66L48.27 114.68L48.28 114.69Q48.20 121.58 45.73 127.78L45.71 127.77L45.78 127.84Q46.31 127.34 47.64 126.77L47.71 126.83L47.75 126.87Q47.56 127.67 46.95 129.20L46.97 129.21L46.99 129.23Q48.92 128.27 51.70 127.74L51.68 127.72L52.03 125.87L52.08 125.91Q54.43 127.66 61.36 127.77ZM57.55 115.06L57.52 115.03L57.62 115.12Q58.51 114.98 59.04 115.36L59.14 115.46L59.13 115.45Q59.38 115.89 59.61 117.91L59.55 117.85L59.54 117.84Q59.90 119.88 58.64 121.19L58.63 121.18L58.68 121.22Q57.39 122.51 55.45 122.39L55.33 122.27L55.39 122.33Q54.49 122.50 53.01 122.01L53.04 122.04L53.07 122.07Q52.83 121.57 52.83 121.03L52.82 121.02L52.81 121.01Q52.86 117.97 54.42 116.37L54.28 116.24L54.34 116.33L54.34 116.33Q55.76 114.94 57.51 115.01Z"/><path fill="#c4e759" d="M111.75 115.46L111.79 115.49L111.80 115.51Q108.19 121.72 104.77 125.68L104.78 125.69L104.82 125.73Q102.93 126.13 100.50 127.01L100.42 126.93L100.58 127.09Q105.42 121.43 110.18 113.02L110.21 113.04L110.11 112.95Q105.59 106.07 99.62 99.67L99.63 99.69L99.61 99.66Q102.43 100.77 104.72 101.27L104.73 101.28L104.74 101.29Q109.46 106.58 111.90 110.54L111.90 110.54L111.98 110.63Q114.42 106.14 118.34 101.72L118.38 101.76L118.42 101.80Q119.88 101.35 123.07 100.59L123.10 100.61L123.15 100.67Q117.07 107.12 113.61 113.06L113.59 113.04L113.58 113.03Q118.78 121.73 123.16 126.30L123.18 126.32L123.07 126.21Q120.50 125.43 118.41 125.20L118.47 125.26L118.53 125.32Q115.62 122.23 111.70 115.41ZM118.28 125.50L118.29 125.50L118.29 125.50Q118.70 125.64 119.16 125.76L119.04 125.64L119.15 125.75Q119.97 126.53 121.49 128.13L121.51 128.15L121.38 128.02Q124.81 128.90 127.85 130.27L127.83 130.25L127.87 130.29Q120.60 123.55 115.50 114.79L115.51 114.80L115.61 114.91Q119.41 108.31 125.31 101.46L125.20 101.35L125.27 101.42Q123.87 102.11 121.70 102.64L121.66 102.60L121.66 102.61Q122.61 101.76 124.36 99.97L124.21 99.83L124.21 99.83Q121.83 100.72 118.14 101.29L118.11 101.26L118.11 101.27Q114.84 105.22 112.25 109.52L112.22 109.49L112.24 109.51Q111.19 107.78 110.01 106.30L109.99 106.27L107.83 103.47L107.34 103.36L107.41 103.43Q107.27 103.44 107.04 103.36L107.10 103.42L106.94 103.27Q106.42 102.59 104.94 101.03L104.93 101.02L104.79 100.88Q101.09 100.12 98.51 98.75L98.46 98.70L98.45 98.70Q105.27 106.05 109.84 113.09L109.80 113.06L109.75 113.00Q105.25 121.18 99.51 127.77L99.43 127.69L99.47 127.73Q100.88 127.17 103.01 126.59L103.00 126.58L101.68 128.00L101.66 127.99Q101.61 127.94 100.28 129.27L100.42 129.41L100.38 129.36Q103.40 128.32 106.56 127.82L106.62 127.88L106.51 127.77Q110.52 123.26 113.11 118.50L113.05 118.44L113.20 118.59Q115.58 122.64 118.29 125.50Z"/><path fill="#6d4ad8" d="M218.32 132.03L218.40 132.11L218.38 132.09Q217.44 132.29 215.54 132.60L215.59 132.66L215.58 132.64Q216.81 130.41 217.84 129.11L217.93 129.21L217.87 129.15Q219.68 129.51 219.83 129.51L219.81 129.48L219.81 129.49Q219.95 129.40 220.48 129.28L220.50 129.31L220.60 129.40Q221.22 129.26 221.41 129.26L221.50 129.35L221.36 129.21Q224.10 129.13 224.02 126.96L223.89 126.82L223.89 126.83Q223.80 125.30 223.69 119.05L223.84 119.20L223.82 119.19Q223.75 115.61 223.82 111.46L223.87 111.50L225.15 111.19L225.17 111.21Q225.82 111.10 226.51 110.87L226.61 110.97L226.57 110.93Q226.41 115.41 226.44 119.79L226.35 119.69L226.39 119.73Q226.40 124.09 226.94 128.47L226.99 128.52L226.96 128.49Q227.09 128.85 227.09 129.12L226.91 128.94L226.99 129.01Q227.08 130.74 225.40 131.12L225.43 131.15L225.38 131.09Q222.23 131.45 218.39 132.10ZM225.23 107.95L223.10 104.83L222.95 104.69Q224.08 103.38 225.91 100.60L225.87 100.56L225.85 100.54Q226.51 101.43 227.84 103.25L227.92 103.34L225.10 107.83ZM228.10 134.42L228.24 134.57L228.20 134.53Q228.77 134.60 229.53 134.26L229.50 134.23L229.51 134.24Q229.72 133.42 229.72 132.96L229.86 133.11L229.72 132.96Q229.67 132.57 229.56 131.96L229.73 132.13L229.71 132.12Q228.40 125.74 228.40 117.82L228.37 117.79L228.26 117.68Q228.38 114.95 228.53 112.05L228.39 111.92L228.55 112.07Q227.89 112.14 226.75 112.45L226.83 112.52L226.87 112.56Q226.70 111.90 226.73 111.36L226.80 111.43L226.86 110.31L227.01 110.46Q225.17 110.98 223.39 111.02L223.50 111.14L223.42 111.06Q223.29 115.30 223.33 118.88L223.49 119.04L223.60 126.88L223.58 126.86Q223.70 128.89 221.53 129.00L221.37 128.84L221.47 128.93Q221.18 128.88 220.67 128.94L220.71 128.97L220.67 128.94Q220.11 128.95 219.84 128.95L219.87 128.97L219.87 128.98Q219.47 129.03 217.91 128.61L217.94 128.64L217.82 128.52Q217.37 129.14 216.26 130.81L216.37 130.92L214.88 133.27L214.87 133.27Q215.65 132.98 217.28 132.60L217.30 132.62L216.78 133.27L216.28 133.95L216.32 133.99Q218.65 133.88 219.98 133.96L219.89 133.87L219.88 133.86Q222.15 133.99 228.08 134.41ZM225.05 108.53L225.08 108.57L225.49 108.10L225.53 108.14Q225.84 108.53 226.79 110.12L226.82 110.15L226.82 110.16Q228.33 107.01 229.89 103.93L229.85 103.89L229.87 103.91Q228.90 102.34 227.95 101.04L227.95 101.04L227.98 101.07Q227.82 101.33 227.48 101.87L227.46 101.84L227.40 101.79Q226.90 101.05 225.91 99.76L225.93 99.78L225.90 99.75Q224.76 101.40 222.44 104.75L222.49 104.80L222.44 104.74Q223.38 105.99 225.09 108.58Z"/><path fill="#eb7979" d="M280.52 113.92L280.58 113.98L280.55 113.96Q278.05 114.00 277.02 115.18L276.90 115.06L276.96 115.12Q275.98 116.35 275.98 118.98L275.83 118.82L275.95 118.95Q275.95 124.05 280.55 123.86L280.47 123.77L280.50 123.80Q282.54 123.94 283.89 122.38L283.99 122.48L283.98 122.47Q285.32 120.90 285.10 118.84L285.09 118.84L285.05 118.79Q285.04 116.24 284.17 115.21L284.25 115.30L284.26 115.30Q282.67 113.86 280.46 113.86ZM285.59 123.76L285.54 123.70L285.52 123.68Q284.32 126.14 279.64 126.14L279.60 126.10L278.30 126.24L278.25 126.19Q275.78 126.09 274.68 124.94L274.67 124.94L274.80 125.07Q273.78 124.05 273.51 121.65L273.39 121.52L273.39 121.52Q273.37 120.17 273.29 118.38L273.24 118.33L273.20 118.29Q273.18 117.32 273.03 115.38L273.12 115.47L272.99 115.34Q273.01 111.17 278.19 111.17L278.17 111.15L279.72 111.14L279.60 111.03Q282.51 111.04 284.60 112.34L284.57 112.30L284.73 112.47Q285.45 112.87 285.94 113.56L285.97 113.59L286.05 113.66Q286.20 112.75 286.73 111.12L286.67 111.05L286.70 111.08Q287.89 110.86 290.21 110.25L290.36 110.40L290.28 110.32Q287.80 114.65 287.80 119.91L287.70 119.81L287.67 119.78Q287.81 123.65 289.18 126.73L288.98 126.54L289.12 126.67Q287.97 126.36 286.07 126.14L285.96 126.02L285.95 126.01Q285.82 125.24 285.52 123.68ZM288.89 128.95L288.75 128.82L291.12 129.55L291.14 129.57Q292.26 129.78 293.25 130.24L293.21 130.20L293.31 130.29Q289.52 125.81 289.52 119.72L289.71 119.92L289.62 119.83Q289.65 115.32 291.78 111.52L291.76 111.49L291.75 111.49Q291.15 111.76 289.81 112.14L289.86 112.19L289.84 112.17Q290.10 111.32 290.97 109.80L290.98 109.80L290.97 109.80Q290.45 110.03 286.45 110.87L286.47 110.89L285.82 112.64L285.78 112.60Q284.04 110.90 279.62 110.67L279.61 110.65L279.59 110.63Q278.57 110.75 276.32 110.91L276.23 110.81L276.37 110.95Q272.60 111.22 272.72 115.26L272.72 115.26L272.75 115.29Q272.76 118.50 273.33 122.95L273.30 122.92L273.53 123.57L273.46 123.50Q273.64 124.41 274.44 125.51L274.36 125.42L274.27 125.34Q274.47 125.54 274.66 125.66L274.77 125.76L274.60 125.59Q274.88 126.10 275.26 126.67L275.24 126.66L275.26 126.67Q276.84 128.37 280.23 128.56L280.05 128.38L280.19 128.51Q281.78 128.59 281.94 128.59L281.94 128.60L283.43 128.52L283.42 128.51Q286.78 128.67 287.99 127.11L287.92 127.03L287.90 127.02Q288.33 127.72 288.94 129.01ZM282.22 116.09L282.36 116.23L282.21 116.07Q283.70 116.22 284.53 116.68L284.49 116.64L284.46 116.61Q284.86 117.50 284.86 118.95L284.70 118.79L284.80 118.89Q285.01 120.81 283.73 122.24L283.64 122.15L283.72 122.23Q282.43 123.64 280.53 123.45L280.55 123.47L280.45 123.37Q279.00 123.37 277.97 122.95L278.08 123.06L278.08 123.05Q277.82 122.15 277.82 120.93L277.83 120.94L277.77 120.88Q277.89 117.35 280.52 116.40L280.63 116.51L280.67 116.54Q281.44 116.10 282.24 116.10Z"/><path d="M12 209 C195 19,185 191,382 96" stroke="#e5e542" fill="none"/><path fill="#d95353" d="M168.41 126.28L168.56 126.43L168.46 126.33Q165.52 126.44 164.27 125.91L164.30 125.94L164.27 125.91Q162.41 125.20 162.49 122.72L162.57 122.81L162.48 122.72Q162.64 119.33 162.64 119.90L162.56 119.83L162.72 119.98Q162.64 114.57 159.78 109.74L159.70 109.65L159.71 109.66Q161.75 110.68 163.73 111.06L163.66 110.99L163.64 110.97Q165.42 115.64 165.30 120.13L165.36 120.18L165.40 120.23Q165.20 121.66 166.04 122.88L165.97 122.82L165.93 122.78Q166.89 124.15 168.41 123.96L168.48 124.04L168.90 123.96L168.93 123.99Q170.17 123.82 170.99 123.06L171.02 123.09L170.90 122.97Q171.88 122.37 171.88 121.42L171.74 121.27L171.72 121.25Q171.79 121.10 171.75 120.91L171.81 120.96L171.71 120.87Q171.73 115.71 172.88 111.37L172.91 111.40L172.85 111.34Q173.81 111.20 174.80 110.97L174.86 111.03L176.95 110.61L176.83 110.49Q174.40 115.63 174.70 121.19L174.70 121.19L174.69 121.18Q174.86 124.25 173.15 125.39L173.18 125.42L173.05 125.29Q171.85 126.26 168.53 126.41ZM170.81 128.76L170.75 128.70L170.87 128.82Q174.18 128.82 176.01 128.06L176.15 128.20L176.20 128.25Q177.00 127.37 177.00 125.96L177.06 126.02L177.04 126.00Q177.02 125.07 176.75 123.51L176.69 123.45L176.77 123.52Q176.29 120.38 176.67 117.38L176.69 117.39L176.77 117.47Q177.03 114.19 178.44 111.45L178.46 111.47L178.55 111.57Q177.81 111.78 176.48 112.20L176.54 112.26L176.45 112.16Q176.79 111.66 177.09 111.09L177.10 111.10L177.61 109.90L177.68 109.97Q175.63 110.51 172.47 111.01L172.54 111.08L172.56 111.09Q171.25 115.80 171.40 120.90L171.37 120.87L171.51 121.00Q171.44 122.95 168.77 123.45L168.82 123.50L168.45 123.58L168.31 123.60L167.43 123.52L167.40 123.48Q167.28 122.57 167.32 122.07L167.22 121.97L167.29 122.04Q167.49 117.52 166.81 113.11L166.79 113.09L165.88 113.09L165.78 113.00Q165.20 112.91 164.67 112.80L164.73 112.86L164.79 112.91Q164.39 111.49 164.12 110.73L164.16 110.76L164.12 110.72Q161.39 110.35 159.14 109.06L159.02 108.94L159.09 109.01Q161.24 112.53 161.96 115.91L162.00 115.96L161.85 115.80Q162.49 118.16 162.34 121.66L162.33 121.65L162.28 121.60Q162.20 121.63 162.12 122.74L162.13 122.75L162.19 122.81Q162.10 125.22 163.47 126.17L163.39 126.10L163.34 126.05Q163.86 128.43 170.86 128.81Z"/><path d="M17 122 C193 124,212 194,384 107" stroke="#65e0c1" fill="none"/><path fill="#dede3f" d="M337.99 114.74L338.04 114.80L337.94 114.70Q333.82 114.57 333.25 117.62L333.13 117.50L333.19 117.56Q332.93 118.56 333.12 119.44L333.25 119.56L333.27 119.59Q333.24 120.32 333.70 121.73L333.70 121.72L333.65 121.67Q334.69 124.81 338.00 124.66L338.05 124.71L338.13 124.78Q340.06 124.77 341.39 123.21L341.33 123.15L341.38 123.20Q342.58 121.69 342.58 119.64L342.62 119.68L342.55 119.61Q342.70 119.04 342.55 117.98L342.73 118.15L342.70 118.12Q342.49 117.08 342.07 116.39L342.06 116.38L342.17 116.49Q340.60 114.89 338.01 114.77ZM342.80 133.19L342.78 133.17L342.82 133.20Q341.01 133.79 332.94 134.17L332.91 134.14L332.85 134.08Q331.26 134.25 329.62 133.41L329.54 133.33L329.57 133.36Q330.48 132.48 332.31 130.69L332.28 130.66L332.35 130.73Q334.57 131.58 336.66 131.39L336.82 131.55L336.70 131.42Q339.69 131.26 340.53 130.99L340.51 130.98L340.48 130.95Q342.72 130.25 342.72 128.46L342.70 128.44L342.81 128.55Q342.63 128.14 342.56 127.92L342.56 127.92L342.60 126.48L342.54 126.42Q342.45 125.56 342.45 124.76L342.51 124.82L342.50 124.81Q341.15 127.08 337.76 127.08L337.82 127.14L337.73 127.05Q333.92 127.13 332.29 124.92L332.23 124.86L332.25 124.88Q331.09 123.30 330.29 118.89L330.42 119.02L330.32 118.92Q330.13 117.51 330.13 116.10L330.14 116.11L330.02 115.99Q329.96 114.14 330.87 113.15L330.92 113.20L330.92 113.20Q332.62 111.81 337.26 111.81L337.26 111.81L338.99 111.98L339.03 112.02Q342.24 112.37 343.57 114.32L343.46 114.21L343.52 114.26Q343.79 113.50 344.21 111.86L344.16 111.82L344.11 111.77Q346.00 111.45 347.75 110.72L347.75 110.73L347.84 110.82Q345.03 116.77 345.03 124.00L345.16 124.12L345.17 124.13Q345.09 126.72 345.47 129.34L345.38 129.25L345.37 129.25Q345.66 130.03 345.59 130.72L345.54 130.67L345.56 130.70Q345.31 132.01 344.10 132.77L344.25 132.93L344.26 132.93Q343.62 133.05 342.78 133.17ZM345.82 136.17L345.80 136.15L345.89 136.24Q347.27 136.21 348.03 135.26L348.01 135.23L347.97 135.19Q348.45 134.38 348.34 133.66L348.33 133.65L348.34 133.66Q348.15 132.94 347.96 132.18L347.89 132.11L347.88 132.10Q346.73 126.95 347.07 121.69L347.14 121.76L347.11 121.73Q347.36 116.20 349.50 111.37L349.55 111.42L347.55 112.46L347.45 112.37Q347.73 111.81 347.96 111.24L347.84 111.12L348.34 109.99L348.44 110.09Q345.98 110.94 343.77 111.35L343.88 111.46L343.92 111.50Q343.56 112.32 343.41 113.35L343.34 113.28L343.41 113.35Q341.26 111.39 337.22 111.39L337.16 111.33L335.53 111.45L335.50 111.42Q332.20 111.35 330.52 112.76L330.48 112.72L330.64 112.88Q329.66 113.80 329.70 115.71L329.73 115.74L329.67 115.68Q329.84 118.29 330.87 122.55L330.72 122.40L330.85 122.53Q331.18 124.31 332.40 125.71L332.42 125.74L332.84 126.15L332.77 126.09L332.75 126.06Q333.96 128.45 336.54 128.98L336.53 128.97L336.59 129.03Q337.95 129.29 339.40 129.33L339.41 129.34L339.32 129.24Q341.17 129.39 342.24 129.01L342.19 128.96L342.26 129.03Q341.56 130.49 338.89 130.84L339.00 130.94L338.98 130.93Q337.84 131.00 337.15 131.00L337.14 130.99L336.87 131.10L336.81 131.05Q333.95 130.99 332.27 130.04L332.28 130.05L330.56 131.76L330.61 131.81Q329.72 132.59 328.88 133.55L328.92 133.58L328.86 133.53Q329.84 134.04 330.83 134.23L330.99 134.40L330.05 135.21L330.06 135.21Q332.73 136.25 338.37 136.25L338.29 136.17L338.54 136.19L338.71 136.37Q342.19 136.23 345.76 136.11ZM339.80 116.98L339.95 117.12L339.81 116.98Q341.14 116.94 342.05 117.36L342.15 117.46L342.01 117.32Q342.36 117.98 342.44 118.66L342.30 118.52L342.30 118.52Q342.33 118.82 342.30 119.74L342.34 119.78L342.43 119.88Q342.23 121.65 341.13 122.94L341.08 122.90L341.09 122.91Q340.04 124.45 338.14 124.41L338.16 124.44L338.15 124.42Q336.67 124.31 335.83 123.90L335.84 123.90L335.70 123.76Q335.32 122.63 335.29 121.60L335.45 121.76L335.45 121.76Q335.29 117.37 339.89 117.07Z"/></svg>